<svg width="100" height="100" viewBox="0 0 100 100" fill="none" xmlns="http://www.w3.org/2000/svg">
<path d="M64.5834 45.8334C66.3195 45.8334 67.7952 45.2257 69.0105 44.0105C70.2257 42.7952 70.8334 41.3195 70.8334 39.5834C70.8334 37.8473 70.2257 36.3716 69.0105 35.1563C67.7952 33.941 66.3195 33.3334 64.5834 33.3334C62.8473 33.3334 61.3716 33.941 60.1563 35.1563C58.941 36.3716 58.3334 37.8473 58.3334 39.5834C58.3334 41.3195 58.941 42.7952 60.1563 44.0105C61.3716 45.2257 62.8473 45.8334 64.5834 45.8334ZM35.4167 45.8334C37.1528 45.8334 38.6285 45.2257 39.8438 44.0105C41.0591 42.7952 41.6667 41.3195 41.6667 39.5834C41.6667 37.8473 41.0591 36.3716 39.8438 35.1563C38.6285 33.941 37.1528 33.3334 35.4167 33.3334C33.6806 33.3334 32.2049 33.941 30.9896 35.1563C29.7743 36.3716 29.1667 37.8473 29.1667 39.5834C29.1667 41.3195 29.7743 42.7952 30.9896 44.0105C32.2049 45.2257 33.6806 45.8334 35.4167 45.8334ZM50 72.9167C54.7223 72.9167 59.0105 71.5799 62.8646 68.9063C66.7188 66.2327 69.5139 62.7084 71.25 58.3334H28.75C30.4862 62.7084 33.2813 66.2327 37.1355 68.9063C40.9896 71.5799 45.2778 72.9167 50 72.9167ZM50 91.6667C44.2361 91.6667 38.8195 90.573 33.75 88.3855C28.6806 86.198 24.2709 83.2292 20.5209 79.4792C16.7709 75.7292 13.8021 71.3195 11.6146 66.25C9.42712 61.1806 8.33337 55.7639 8.33337 50C8.33337 44.2361 9.42712 38.8195 11.6146 33.75C13.8021 28.6806 16.7709 24.2709 20.5209 20.5209C24.2709 16.7709 28.6806 13.8021 33.75 11.6146C38.8195 9.42712 44.2361 8.33337 50 8.33337C55.7639 8.33337 61.1806 9.42712 66.25 11.6146C71.3195 13.8021 75.7292 16.7709 79.4792 20.5209C83.2292 24.2709 86.198 28.6806 88.3855 33.75C90.573 38.8195 91.6667 44.2361 91.6667 50C91.6667 55.7639 90.573 61.1806 88.3855 66.25C86.198 71.3195 83.2292 75.7292 79.4792 79.4792C75.7292 83.2292 71.3195 86.198 66.25 88.3855C61.1806 90.573 55.7639 91.6667 50 91.6667ZM50 83.3334C59.3056 83.3334 67.1875 80.1042 73.6459 73.6459C80.1042 67.1875 83.3334 59.3056 83.3334 50C83.3334 40.6945 80.1042 32.8125 73.6459 26.3542C67.1875 19.8959 59.3056 16.6667 50 16.6667C40.6945 16.6667 32.8125 19.8959 26.3542 26.3542C19.8959 32.8125 16.6667 40.6945 16.6667 50C16.6667 59.3056 19.8959 67.1875 26.3542 73.6459C32.8125 80.1042 40.6945 83.3334 50 83.3334Z" fill="white"/>
</svg>
