<svg width="84" height="68" viewBox="0 0 84 68" fill="none" xmlns="http://www.w3.org/2000/svg">
<path d="M33.6667 64.625V40.875L39.5 24.2083C39.8472 23.4444 40.3333 22.8194 40.9583 22.3333C41.6528 21.7777 42.4861 21.5 43.4583 21.5H73.875C74.8472 21.5 75.6806 21.7777 76.375 22.3333C77.0694 22.8194 77.5555 23.4444 77.8333 24.2083L83.6667 40.875V64.625C83.6667 65.3889 83.3889 66.0486 82.8333 66.6041C82.3472 67.0902 81.7222 67.3333 80.9583 67.3333H78.0417C77.2778 67.3333 76.6181 67.0902 76.0625 66.6041C75.5764 66.0486 75.3333 65.3889 75.3333 64.625V61.0833H42V64.625C42 65.3889 41.7222 66.0486 41.1667 66.6041C40.6806 67.0902 40.0556 67.3333 39.2917 67.3333H36.375C35.6111 67.3333 34.9514 67.0902 34.3958 66.6041C33.9097 66.0486 33.6667 65.3889 33.6667 64.625ZM42 36.0833H75.3333L72.4167 27.75H44.9167L42 36.0833ZM39.9167 42.3333V54.8333V42.3333ZM46.1667 52.75C47.3472 52.75 48.3194 52.368 49.0833 51.6041C49.9167 50.7708 50.3333 49.7639 50.3333 48.5833C50.3333 47.4027 49.9167 46.4305 49.0833 45.6666C48.3194 44.8333 47.3472 44.4166 46.1667 44.4166C44.9861 44.4166 43.9792 44.8333 43.1458 45.6666C42.3819 46.4305 42 47.4027 42 48.5833C42 49.7639 42.3819 50.7708 43.1458 51.6041C43.9792 52.368 44.9861 52.75 46.1667 52.75ZM71.1667 52.75C72.3472 52.75 73.3194 52.368 74.0833 51.6041C74.9167 50.7708 75.3333 49.7639 75.3333 48.5833C75.3333 47.4027 74.9167 46.4305 74.0833 45.6666C73.3194 44.8333 72.3472 44.4166 71.1667 44.4166C69.9861 44.4166 68.9792 44.8333 68.1458 45.6666C67.3819 46.4305 67 47.4027 67 48.5833C67 49.7639 67.3819 50.7708 68.1458 51.6041C68.9792 52.368 69.9861 52.75 71.1667 52.75ZM8.66666 67.3333V63.1666L12.8333 59C9.36111 59 6.40972 57.7847 3.97916 55.3541C1.54861 52.9236 0.333328 49.9722 0.333328 46.5V13.1666C0.333328 8.58329 2.38194 5.35412 6.47916 3.47912C10.5764 1.60413 17.5555 0.666626 27.4167 0.666626C37.6944 0.666626 44.7778 1.5694 48.6667 3.37496C52.5556 5.18052 54.5 8.4444 54.5 13.1666V17.3333H46.1667V13.1666H8.66666V38.1666H29.5V67.3333H8.66666ZM12.8333 50.6666C14.0139 50.6666 14.9861 50.2847 15.75 49.5208C16.5833 48.6875 17 47.6805 17 46.5C17 45.3194 16.5833 44.3472 15.75 43.5833C14.9861 42.75 14.0139 42.3333 12.8333 42.3333C11.6528 42.3333 10.6458 42.75 9.81249 43.5833C9.04861 44.3472 8.66666 45.3194 8.66666 46.5C8.66666 47.6805 9.04861 48.6875 9.81249 49.5208C10.6458 50.2847 11.6528 50.6666 12.8333 50.6666ZM39.9167 54.8333H77.4167V42.3333H39.9167V54.8333Z" fill="white"/>
</svg>
